{"title":"The.Girl.With.The.Dragon.Tatto.2011.DvDSCR.Riskee","uid":6978400,"size":1150865582,"categoryP":"video","categoryS":"movies","magnet":"?xt=urn:btih:f440a00b888108ec4e3946e4d802445ff9f5af85&amp;dn=The.Girl.With.The.Dragon.Tatto.2011.DvDSCR.Riskee&amp;tr=udp%3A%2F%2Ftracker.openbittorrent.com%3A80&amp;tr=udp%3A%2F%2Fopen.demonii.com%3A1337&amp;tr=udp%3A%2F%2Ftracker.coppersurfer.tk%3A6969&amp;tr=udp%3A%2F%2Fexodus.desync.com%3A6969","seeders":0,"leechers":0,"uploader":null,"files":-1,"time":1327278354,"description":"The Girl with the Dragon Tattoo (2011)\n\nDirector: David Fincher\n\nRelease Date: 12 January 2012 (Germany)\n\nGenre: Crime | Drama | Mystery | Thriller\n\nLanguage: English\n\nRun Time: 158 min\n\nStoryline: This English-language adaptation\nof the Swedish novel by Stieg Larsson\nfollows a disgraced journalist, Mikael\nBlomkvist (Daniel Craig), as he investigates\nthe disappearance of a wealthy patriarch's niece from\n\n\nGeneral\nComplete name                            : D:Torrent Films\\The Girl With The Dragon Tatto_2011_DvDSCR_Riskee.avi\nFormat                                   : AVI\nFormat/Info                              : Audio Video Interleave\nFile size                                : 1.07 GiB\nDuration                                 : 2h 38mn\nOverall bit rate                         : 970 Kbps\nWriting application                      : VirtualDubMod 1.5.4.1 (build 2178/release)\nWriting library                          : VirtualDubMod build 2178/release\n\nVideo\nID                                       : 0\nFormat                                   : MPEG-4 Visual\nFormat profile                           : Advanced Simple@L5\nFormat settings, BVOP                    : 1\nFormat settings, QPel                    : No\nFormat settings, GMC                     : No warppoints\nFormat settings, Matrix                  : Custom\nCodec ID                                 : XVID\nCodec ID/Hint                            : XviD\nDuration                                 : 2h 38mn\nBit rate                                 : 516 Kbps\nWidth                                    : 720 pixels\nHeight                                   : 304 pixels\nDisplay aspect ratio                     : 2.35:1\nFrame rate                               : 23.976 fps\nColor space                              : YUV\nChroma subsampling                       : 4:2:0\nBit depth                                : 8 bits\nScan type                                : Progressive\nCompression mode                         : Lossy\nBits/(Pixel*Frame)                       : 0.098\nStream size                              : 583 MiB (53%)\nWriting library                          : XviD 1.2.1 (UTC 2008-12-04)\n\nAudio\nID                                       : 1\nFormat                                   : AC-3\nFormat/Info                              : Audio Coding 3\nMode extension                           : CM (complete main)\nCodec ID                                 : 2000\nDuration                                 : 2h 38mn\nBit rate mode                            : Constant\nBit rate                                 : 448 Kbps\nChannel(s)                               : 6 channels\nChannel positions                        : Front: L C R, Side: L R, LFE\nSampling rate                            : 48.0 KHz\nBit depth                                : 16 bits\nCompression mode                         : Lossy\nStream size                              : 507 MiB (46%)\nAlignment                                : Split accross interleaves\nInterleave, duration                     : 96 ms (2.30 video frames)\nInterleave, preload duration             : 96 ms\nLanguage                                 : English\n\nScreen samples:\n &lt;a href=&quot;\nhttp://i86.photobucket.com/albums/k117/sour-cow/superseeds/green-screens.jpg&quot; rel=&quot;nofollow&quot; target=&quot;_NEW&quot;&gt;\nhttp://i86.photobucket.com/albums/k117/sour-cow/superseeds/green-screens.jpg&lt;/a&gt;\n\n     |                       |               \n,---.|---.,---.,---.,---.,---|.   .,-.-.,---.\n`---.|   |,---||    |---'|   ||   || | ||   |\n`---'`   '`---^`    `---'`---'`---'` ' '|---'.org\nMusic,Appz,Xbox360,Tv,Movies,Ps3,Games..|     \n","torrent":{"xt":"urn:btih:f440a00b888108ec4e3946e4d802445ff9f5af85","amp;dn":"The.Girl.With.The.Dragon.Tatto.2011.DvDSCR.Riskee","amp;tr":["udp%3A%2F%2Ftracker.openbittorrent.com%3A80","udp%3A%2F%2Fopen.demonii.com%3A1337","udp%3A%2F%2Ftracker.coppersurfer.tk%3A6969","udp%3A%2F%2Fexodus.desync.com%3A6969"],"infoHash":"f440a00b888108ec4e3946e4d802445ff9f5af85","infoHashBuffer":{"type":"Buffer","data":[244,64,160,11,136,129,8,236,78,57,70,228,216,2,68,95,249,245,175,133]},"announce":[],"urlList":[]}}